<svg version="1.1" xmlns="http://www.w3.org/2000/svg" xmlns:xlink="http://www.w3.org/1999/xlink" width="276" height="263" viewBox="0,0,276,263"><g transform="translate(-502,-228.5)"><g stroke="none" stroke-width="0" stroke-miterlimit="10"><path d="M502,491.5v-263h276v263z" fill="#131313"/><path d="M731,453.01892c0,45.28735 -41.56387,36.26733 -91.82178,36.26733c-50.25791,0 -90.17822,9.02002 -90.17822,-36.26733c0,-45.28735 40.74209,-82 91,-82c50.25791,0 91,36.71265 91,82z" fill="#ffffff"/><path d="M693.47059,315.52941c0,28.80003 -23.9396,52.14706 -53.47059,52.14706c-29.53099,0 -53.47059,-23.34704 -53.47059,-52.14706c0,-28.80003 23.9396,-52.14705 53.47059,-52.14705c29.53099,0 53.47059,23.34703 53.47059,52.14705z" fill="#ffffff"/></g></g></svg>