<svg version="1.1" xmlns="http://www.w3.org/2000/svg" xmlns:xlink="http://www.w3.org/1999/xlink" width="16.08088" height="44.07353" viewBox="0,0,16.08088,44.07353"><g transform="translate(-631.95281,-338.05305)"><g stroke="none" stroke-width="0" stroke-miterlimit="10"><path d="M631.95281,382.12658v-44.07353h16.08088v44.07353z" fill="#151515"/><path d="M645.85,360c0,3.23087 -2.61913,5.85 -5.85,5.85c-3.23087,0 -5.85,-2.61913 -5.85,-5.85c0,-3.23087 2.61913,-5.85 5.85,-5.85c3.23087,0 5.85,2.61913 5.85,5.85z" fill="#ffffff"/><path d="M645.85,344.09732c0,3.23086 -2.61914,5.85 -5.85,5.85c-3.23086,0 -5.85,-2.61914 -5.85,-5.85c0,-3.23086 2.61914,-5.85 5.85,-5.85c3.23086,0 5.85,2.61914 5.85,5.85z" fill="#ffffff"/><path d="M645.85,375.82779c0,3.23086 -2.61914,5.85 -5.85,5.85c-3.23086,0 -5.85,-2.61913 -5.85,-5.85c0,-3.23086 2.61914,-5.85 5.85,-5.85c3.23086,0 5.85,2.61914 5.85,5.85z" fill="#ffffff"/></g></g></svg>